<?xml version="1.0" encoding="UTF-8"?>
<!DOCTYPE svg PUBLIC "-//W3C//DTD SVG 1.1//EN" "http://www.w3.org/Graphics/SVG/1.1/DTD/svg11.dtd">
<svg xmlns="http://www.w3.org/2000/svg" version="1.1" width="4340px" height="1434px" style="shape-rendering:geometricPrecision; text-rendering:geometricPrecision; image-rendering:optimizeQuality; fill-rule:evenodd; clip-rule:evenodd" xmlns:xlink="http://www.w3.org/1999/xlink">
<g><path style="opacity:0.936" fill="#fdfdfd" d="M 4033.5,42.5 C 4052.08,42.1741 4070.58,42.5075 4089,43.5C 4089.5,80.1652 4089.67,116.832 4089.5,153.5C 4131.17,153.5 4172.83,153.5 4214.5,153.5C 4214.17,116.79 4214.51,80.1236 4215.5,43.5C 4234.83,42.1667 4254.17,42.1667 4273.5,43.5C 4274.16,89.6261 4274.5,135.793 4274.5,182C 4274.5,228.207 4274.16,274.374 4273.5,320.5C 4254.17,321.833 4234.83,321.833 4215.5,320.5C 4214.51,282.876 4214.17,245.21 4214.5,207.5C 4172.83,207.5 4131.17,207.5 4089.5,207.5C 4089.5,245.5 4089.5,283.5 4089.5,321.5C 4069.77,322.147 4050.27,321.48 4031,319.5C 4030.33,227.833 4030.33,136.167 4031,44.5C 4031.99,43.9341 4032.83,43.2674 4033.5,42.5 Z"/></g>
<g><path style="opacity:0.971" fill="#fefefe" d="M 1551.5,46.5 C 1602.07,46.1694 1652.57,46.5027 1703,47.5C 1703.17,171 1703.33,294.5 1703.5,418C 1703.5,541.874 1702.83,665.541 1701.5,789C 1651.79,789.828 1602.13,789.662 1552.5,788.5C 1551.5,541.168 1551.17,293.834 1551.5,46.5 Z"/></g>
<g><path style="opacity:0.982" fill="#fefefe" d="M 388.5,47.5 C 529.302,39.5008 641.135,91.8341 724,204.5C 767.043,268.983 787.877,340.149 786.5,418C 785.113,562.502 722.78,671.502 599.5,745C 529.222,781.715 454.555,796.049 375.5,788C 262.525,775.787 173.358,723.621 108,631.5C 65.2317,566.961 44.065,495.794 44.5,418C 46.8037,270.648 111.47,160.648 238.5,88C 285.816,64.1729 335.816,50.6729 388.5,47.5 Z M 396.5,187.5 C 491.426,181.699 562.26,219.699 609,301.5C 635.821,357.361 642.821,415.694 630,476.5C 615.906,537.551 582.739,585.051 530.5,619C 482.729,645.638 431.729,654.638 377.5,646C 301.073,631.87 246.907,589.37 215,518.5C 189,451.501 189,384.501 215,317.5C 250.646,239.34 311.146,196.006 396.5,187.5 Z"/></g>
<g><path style="opacity:0.974" fill="#fefefe" d="M 891.5,47.5 C 942.167,47.5 992.833,47.5 1043.5,47.5C 1043.5,247.833 1043.5,448.167 1043.5,648.5C 1174.74,648.168 1305.9,648.501 1437,649.5C 1437.83,696.071 1437.66,742.571 1436.5,789C 1254.93,789.833 1073.43,789.666 892,788.5C 891.5,541.5 891.333,294.5 891.5,47.5 Z"/></g>
<g><path style="opacity:0.976" fill="#fefefe" d="M 1799.5,47.5 C 1853.4,47.1692 1907.24,47.5025 1961,48.5C 2030.33,227.167 2099.67,405.833 2169,584.5C 2239.4,405.794 2309.9,227.127 2380.5,48.5C 2434.16,47.5001 2487.83,47.1667 2541.5,47.5C 2444.43,295.146 2346.1,542.312 2246.5,789C 2196.5,789.667 2146.5,789.667 2096.5,789C 2096,788.5 2095.5,788 2095,787.5C 1996.2,540.915 1897.7,294.248 1799.5,47.5 Z"/></g>
<g><path style="opacity:0.979" fill="#fefefe" d="M 2655.5,47.5 C 2837.5,47.5 3019.5,47.5 3201.5,47.5C 3202.16,94.2179 3201.49,140.718 3199.5,187C 3068.83,187.5 2938.17,187.667 2807.5,187.5C 2807.5,239.5 2807.5,291.5 2807.5,343.5C 2906.17,343.5 3004.83,343.5 3103.5,343.5C 3104.16,390.218 3103.49,436.718 3101.5,483C 3003.5,483.5 2905.5,483.667 2807.5,483.5C 2807.5,538.5 2807.5,593.5 2807.5,648.5C 2938.88,647.836 3070.04,648.503 3201,650.5C 3201.83,696.541 3201.66,742.541 3200.5,788.5C 3019.13,789.832 2837.79,789.832 2656.5,788.5C 2655.5,541.501 2655.17,294.501 2655.5,47.5 Z"/></g>
<g><path style="opacity:0.983" fill="#fefefe" d="M 3347.5,47.5 C 3467.5,47.3333 3587.5,47.5 3707.5,48C 3878.18,59.0127 3951.34,149.179 3927,318.5C 3912.86,393.644 3869.36,442.81 3796.5,466C 3857.96,573.085 3919.29,680.252 3980.5,787.5C 3980.29,788.086 3979.96,788.586 3979.5,789C 3922.5,789.667 3865.5,789.667 3808.5,789C 3749.01,687.693 3690.01,586.026 3631.5,484C 3587.5,483.5 3543.5,483.333 3499.5,483.5C 3499.67,585.167 3499.5,686.834 3499,788.5C 3448.86,789.831 3398.7,789.831 3348.5,788.5C 3347.5,541.501 3347.17,294.501 3347.5,47.5 Z M 3499.5,187.5 C 3569.17,187.333 3638.83,187.5 3708.5,188C 3779.51,192.82 3805.67,229.653 3787,298.5C 3778.46,318.043 3763.96,330.877 3743.5,337C 3730.78,340.716 3717.78,342.716 3704.5,343C 3636.17,343.5 3567.83,343.667 3499.5,343.5C 3499.5,291.5 3499.5,239.5 3499.5,187.5 Z"/></g>
<g><path style="opacity:0.944" fill="#fdfdfd" d="M 4128.5,393.5 C 4146.17,393.333 4163.84,393.5 4181.5,394C 4182.77,394.309 4183.93,394.809 4185,395.5C 4221.5,487.172 4258,578.838 4294.5,670.5C 4294.18,671.647 4293.52,672.481 4292.5,673C 4272.49,673.833 4252.49,673.666 4232.5,672.5C 4227.17,659.167 4221.83,645.833 4216.5,632.5C 4175.5,631.333 4134.5,631.167 4093.5,632C 4087.83,645.667 4082.17,659.333 4076.5,673C 4056.17,673.5 4035.84,673.667 4015.5,673.5C 4016.61,667.322 4018.45,661.322 4021,655.5C 4055.72,569.993 4090.06,484.326 4124,398.5C 4124.74,396.03 4126.24,394.363 4128.5,393.5 Z M 4155.5,475.5 C 4156.5,475.47 4157.16,475.97 4157.5,477C 4169.84,508.683 4182.17,540.35 4194.5,572C 4168.83,572.833 4143.16,572.666 4117.5,571.5C 4130.37,539.555 4143.04,507.555 4155.5,475.5 Z"/></g>
<g><path style="opacity:0.944" fill="#fefefe" d="M 4049.5,745.5 C 4096.5,745.333 4143.5,745.5 4190.5,746C 4251.65,752.517 4277.48,786.35 4268,847.5C 4264.89,864.899 4256.72,879.399 4243.5,891C 4236.09,896.033 4228.43,900.533 4220.5,904.5C 4242.71,943.764 4265.05,982.931 4287.5,1022C 4287.36,1022.77 4287.02,1023.44 4286.5,1024C 4264.83,1024.67 4243.17,1024.67 4221.5,1024C 4199.1,986.593 4177.1,948.926 4155.5,911C 4139.5,910.5 4123.5,910.333 4107.5,910.5C 4107.5,948.5 4107.5,986.5 4107.5,1024.5C 4088.17,1024.5 4068.83,1024.5 4049.5,1024.5C 4049.5,931.5 4049.5,838.5 4049.5,745.5 Z M 4107.5,800.5 C 4136.17,800.333 4164.84,800.5 4193.5,801C 4213.53,807.4 4220.03,820.567 4213,840.5C 4209.19,847 4203.69,851.5 4196.5,854C 4166.88,855.46 4137.21,855.96 4107.5,855.5C 4107.5,837.167 4107.5,818.833 4107.5,800.5 Z"/></g>
<g><path style="opacity:0.97" fill="#fefefe" d="M 64.5,857.5 C 76.5046,857.333 88.5046,857.5 100.5,858C 174.676,942.341 249.01,1026.51 323.5,1110.5C 397.608,1026.47 471.608,942.301 545.5,858C 558.076,857.179 570.576,857.345 583,858.5C 583.667,1030.83 583.667,1203.17 583,1375.5C 547.573,1376.5 512.073,1376.83 476.5,1376.5C 476.667,1277.83 476.5,1179.17 476,1080.5C 425.693,1137.31 374.86,1193.64 323.5,1249.5C 272.14,1193.64 221.307,1137.31 171,1080.5C 170.667,1178.83 170.333,1277.17 170,1375.5C 134.906,1376.5 99.7396,1376.83 64.5,1376.5C 64.5,1203.5 64.5,1030.5 64.5,857.5 Z"/></g>
<g><path style="opacity:0.971" fill="#fefefe" d="M 862.5,857.5 C 898.073,857.171 933.573,857.504 969,858.5C 1036.33,1027.17 1103.67,1195.83 1171,1364.5C 1172.48,1368.45 1173.65,1372.45 1174.5,1376.5C 1136.83,1376.67 1099.17,1376.5 1061.5,1376C 1051.36,1349.92 1041.03,1323.92 1030.5,1298C 953.498,1297.17 876.498,1297.33 799.5,1298.5C 789.294,1324.46 779.294,1350.46 769.5,1376.5C 731.833,1376.5 694.167,1376.5 656.5,1376.5C 723.985,1203.05 792.652,1030.05 862.5,857.5 Z M 917.5,1002.5 C 942.666,1064.85 967.333,1127.52 991.5,1190.5C 941.833,1191.83 892.167,1191.83 842.5,1190.5C 867.898,1127.97 892.898,1065.3 917.5,1002.5 Z"/></g>
<g><path style="opacity:0.972" fill="#fefefe" d="M 1250.5,857.5 C 1332.83,857.333 1415.17,857.5 1497.5,858C 1526.19,858.836 1553.85,864.502 1580.5,875C 1622.73,893.241 1647.9,925.074 1656,970.5C 1662.42,1008.08 1659.08,1044.75 1646,1080.5C 1629.65,1116.02 1602.81,1139.69 1565.5,1151.5C 1606.41,1223.66 1647.58,1295.66 1689,1367.5C 1690.74,1370.31 1691.91,1373.31 1692.5,1376.5C 1651.83,1376.67 1611.17,1376.5 1570.5,1376C 1529.75,1305.17 1488.75,1234.5 1447.5,1164C 1417.17,1163.5 1386.84,1163.33 1356.5,1163.5C 1356.5,1234.5 1356.5,1305.5 1356.5,1376.5C 1321.17,1376.5 1285.83,1376.5 1250.5,1376.5C 1250.5,1203.5 1250.5,1030.5 1250.5,857.5 Z M 1356.5,957.5 C 1407.83,957.333 1459.17,957.5 1510.5,958C 1550.26,963.439 1566.43,985.939 1559,1025.5C 1553.76,1044.41 1541.59,1056.24 1522.5,1061C 1514.96,1062.9 1507.29,1063.9 1499.5,1064C 1451.83,1064.5 1404.17,1064.67 1356.5,1064.5C 1356.5,1028.83 1356.5,993.167 1356.5,957.5 Z"/></g>
<g><path style="opacity:0.975" fill="#fefefe" d="M 1715.5,857.5 C 1865.5,857.167 2015.5,857.5 2165.5,858.5C 2166.83,890.833 2166.83,923.167 2165.5,955.5C 2108.17,956.5 2050.84,956.833 1993.5,956.5C 1993.5,1096.5 1993.5,1236.5 1993.5,1376.5C 1958.17,1376.5 1922.83,1376.5 1887.5,1376.5C 1887.5,1236.5 1887.5,1096.5 1887.5,956.5C 1830.17,956.5 1772.83,956.5 1715.5,956.5C 1715.5,923.5 1715.5,890.5 1715.5,857.5 Z"/></g>
<g><path style="opacity:0.963" fill="#fefefe" d="M 2237.5,857.5 C 2273.17,857.5 2308.83,857.5 2344.5,857.5C 2344.5,1030.5 2344.5,1203.5 2344.5,1376.5C 2308.83,1376.5 2273.17,1376.5 2237.5,1376.5C 2237.5,1203.5 2237.5,1030.5 2237.5,857.5 Z"/></g>
<g><path style="opacity:0.966" fill="#fefefe" d="M 2445.5,857.5 C 2458.17,857.333 2470.84,857.5 2483.5,858C 2590,964.5 2696.5,1071 2803,1177.5C 2803.5,1070.83 2803.67,964.167 2803.5,857.5C 2839.17,857.5 2874.83,857.5 2910.5,857.5C 2910.5,1030.5 2910.5,1203.5 2910.5,1376.5C 2896.16,1376.67 2881.83,1376.5 2867.5,1376C 2763.03,1270.53 2658.19,1165.36 2553,1060.5C 2552.5,1165.83 2552.33,1271.17 2552.5,1376.5C 2516.83,1376.5 2481.17,1376.5 2445.5,1376.5C 2445.5,1203.5 2445.5,1030.5 2445.5,857.5 Z"/></g>
<g><path style="opacity:0.973" fill="#fefefe" d="M 3011.5,857.5 C 3138.84,857.167 3266.17,857.5 3393.5,858.5C 3394.82,891.154 3394.82,923.821 3393.5,956.5C 3301.83,956.5 3210.17,956.5 3118.5,956.5C 3118.5,992.5 3118.5,1028.5 3118.5,1064.5C 3187.17,1064.5 3255.83,1064.5 3324.5,1064.5C 3324.5,1097.17 3324.5,1129.83 3324.5,1162.5C 3255.83,1162.5 3187.17,1162.5 3118.5,1162.5C 3118.5,1200.83 3118.5,1239.17 3118.5,1277.5C 3210.17,1277.5 3301.83,1277.5 3393.5,1277.5C 3393.5,1310.5 3393.5,1343.5 3393.5,1376.5C 3266.17,1376.5 3138.83,1376.5 3011.5,1376.5C 3011.5,1203.5 3011.5,1030.5 3011.5,857.5 Z"/></g>
<g><path style="opacity:0.973" fill="#fefefe" d="M 3486.5,857.5 C 3625.17,857.5 3763.83,857.5 3902.5,857.5C 3902.97,871.931 3902.47,886.264 3901,900.5C 3821.46,1025.75 3742.29,1151.25 3663.5,1277C 3743.17,1277.5 3822.83,1277.67 3902.5,1277.5C 3902.5,1310.5 3902.5,1343.5 3902.5,1376.5C 3763.83,1376.5 3625.17,1376.5 3486.5,1376.5C 3486.04,1363.4 3486.54,1350.4 3488,1337.5C 3567.04,1210.58 3646.21,1083.75 3725.5,957C 3645.83,956.5 3566.17,956.333 3486.5,956.5C 3486.5,923.5 3486.5,890.5 3486.5,857.5 Z"/></g>
<g><path style="opacity:0.942" fill="#fefefe" d="M 4142.5,1097.5 C 4199.89,1091.96 4245.39,1112.29 4279,1158.5C 4298.35,1190.6 4305.02,1225.26 4299,1262.5C 4286.89,1320.27 4252.39,1357.11 4195.5,1373C 4146.76,1383.31 4103.43,1372.65 4065.5,1341C 4027.81,1303.44 4013.97,1258.28 4024,1205.5C 4035.02,1159.29 4062.19,1126.46 4105.5,1107C 4117.62,1102.45 4129.95,1099.28 4142.5,1097.5 Z M 4155.5,1151.5 C 4195.18,1150.91 4222.35,1168.91 4237,1205.5C 4247.21,1237.89 4242.21,1267.56 4222,1294.5C 4199.1,1318.79 4171.27,1326.96 4138.5,1319C 4106.12,1308.29 4086.96,1286.12 4081,1252.5C 4075.61,1214.82 4088.11,1184.99 4118.5,1163C 4130.15,1156.51 4142.48,1152.68 4155.5,1151.5 Z"/></g>
</svg>
